<svg xmlns="http://www.w3.org/2000/svg" width="1024" height="705" viewBox="0 0 1024 705"><path fill="#792023" d="M641.3 245.598c21.014 4.119 37.312 4.336 57.01-7.997 26.22-16.415 21.071-51.02 31.907-74.334 23.823-51.235 63.311-71.163 118.35-62.394 44.175 7.039 41.05 60.63 78.648 53.74a59 59 0 0 0 22.233-8.925c8.816-5.894 12.269-11.142 17.746-21.19 11.178-20.513 13.507-68.688 42.56-26.66 2.644 3.823 4.906 10.304 6.263 15.116-1.752 4.082-3.52 7.99-6.62 11.234-10.845 11.335-24.257 20.412-36.445 30.242-25.828 20.827-107.444 87.462-135.21 98.286-8.502 3.315-19.076 4.373-28.12 5.925-71.532 12.277-111.392-10.8-182.086 32.198-19.18 11.666-35.764 27.078-45.094 47.852-9.393 20.908-7.592 29.836-31.154 38.815-12.955 4.936-26.119 8.288-37.883 15.835 18.032-2.189 37.593-9.83 55.51-13.877.124-.029 1.791.993 2 1.245 9.431 11.505 14.389 33.137 23.395 45.19 12.465 16.674 25.62 28.956 42.099 41.11 8.91 6.573 15.85 13.539 25.262 19.731 27.762 18.12 62.283 29.224 95.536 28.653 7.688-.129 24.862-4.669 32.316-8.441 14.874-7.76 32.74-30.4 43.913-3.706 2.953 7.055 3.515 17.077 6.149 23.75 17.127 43.377 26.771 88.354-6.32 127.372-9.888 11.656-24.348 17.635-39.789 17.954-27.034.271-46.118 2.758-67.365-17.282-22.733-21.436-32.006-47.03-39.374-76.207-9.35-36.993-42.922-86.215-75.128-106.538-14.293-9.02-40.636-21.016-57.096-30.041-18.975-10.405-41.403-25.1-60.574-34.071-22.964 5.546-49.946 18.385-72.54 26.086-63.794 21.871-127.358 38.56-190.107 63.765-32.31 12.976-70.493 22.603-103.36 35.617-12.912 5.116-90.604 34.917-99.058 30.996-5.906-13.7 43.966-33.11 54.762-38.717a3725 3725 0 0 1 100.806-50.88c43.405-20.652 88.371-39.252 131.052-61.645 19.684-10.327 38.526-22.571 59.263-31.043 11.254-4.786 20.447-2.334 26.696-4.26 6.316-.881 9.996-.438 16.385.073 5.725-8.585 10.78-21.624 16.345-31.598 11.154-4.884 39.013-11.899 54.427-18.052 39.126-11.682 73.847-28.56 108.496-50.583 16.022-10.185 26.586-25.555 44.194-32.344m175.323-8.83c30.396-10.483 38.207-22.31 52.705-49.346 23.328-43.512-26.176-57.935-61.316-53.602-38.869 4.144-63.374 22.98-58.32 63.454 4.105 32.838 32.391 44.12 61.74 40.488a43 43 0 0 0 5.191-.994m-13.412 410.488c63.755-37.817.057-114.838-63.95-108.703-27.738 10.413-27.753 28.371-18.056 53.313 12.288 31.587 44.761 67.19 82.006 55.39M498.27 392.776c9.354-2.997 16.598-10.007 13.04-20.632a15.55 15.55 0 0 0-8.23-9.178c-3.49-1.57-7.587-1.755-11.378-1.998-18.296 4.413-19.053 21.429-5.458 28.952a22.73 22.73 0 0 0 12.026 2.856"/><path fill="#792023" d="M397.304 365.525c-.753-.457-.366-.287-1.105-.526-18.1-5.965-36.533-13.087-52.899-22.967-11.8-7.123-22.196-15.017-34.806-20.81-22.403-10.292-43.771-22.658-65.54-34.197-14.252-7.555-27.76-16.61-42.066-24.064-14.188-6.506-28.696-11.466-42.95-17.958-38.56-17.535-72.25-42.945-110.986-60.326-3.614-1.622-6.87-3.335-8.524-6.975-4.533-9.97 6.946-20.277 16.458-16.97 10.318 4.42 21.282 8.09 31.541 12.575 39.09 17.093 78.412 33.782 117.816 50.153 18.633 7.74 36.353 17.264 55.124 24.645 14.02 5.513 29.712 6.438 43.798 11.987 12.8 4.975 25.88 13.742 37.844 18.509a2561 2561 0 0 1 105.266 44.655c5.284 2.707 11.46 5.684 16.486 8.702-34.879 11.14-33.036 3.61-47.173 39.758-5.486-2.083-12.683-5.084-18.284-6.19"/><path fill="#945556" fill-opacity=".016" d="m446.275 323.256 5.327-4.148c3.11.78 7.658 1.607 10.134 3.415l-1.349 1.95c2.843 2.62 22.508 3.332 28.223 4.052-15.414 6.153-43.273 13.168-54.427 18.052-5.565 9.974-10.62 23.013-16.345 31.598-6.389-.511-10.069-.954-16.385-.073 4.677-10.21-1.78-3.777-4.15-12.577 5.602 1.107 12.799 4.108 18.285 6.19 14.137-36.146 12.294-28.617 47.173-39.757-5.027-3.018-11.202-5.995-16.486-8.702"/></svg>